<svg width="86" height="20" viewBox="0 0 86 20" fill="none" xmlns="http://www.w3.org/2000/svg">
<path d="M15.8467 12.8196C16.3258 12.8196 16.765 12.5801 17.0844 12.2208C17.0445 11.9812 17.0046 11.7417 17.0046 11.5021C17.0046 10.9033 17.1643 10.3443 17.4038 9.82528V3.55707C17.4038 2.67872 16.6852 2 15.8467 2C14.9684 2 14.2897 2.71865 14.2897 3.55707V11.2226C14.2497 12.101 14.9684 12.8196 15.8467 12.8196C15.8068 12.8196 15.8068 12.8196 15.8467 12.8196Z" fill="url(#paint0_radial_798_1547)"/>
<path d="M20.7405 5.194C17.1872 5.194 14.3525 8.06859 14.3525 11.6219C14.3525 13.2189 14.9514 14.736 16.0294 15.9338L17.9857 13.9775C16.6682 12.4603 16.8678 10.1846 18.385 8.86709C19.9021 7.54957 22.2177 7.70927 23.4953 9.22641C24.7729 10.7436 24.6132 13.0193 23.0961 14.3368C21.7786 15.4547 19.9021 15.4946 18.5447 14.4566L16.5883 16.4528C19.2633 18.7685 23.2957 18.4491 25.6114 15.7342C27.927 13.0193 27.6076 9.02679 24.8927 6.71115C23.7349 5.75295 22.2577 5.194 20.7405 5.194Z" fill="url(#paint1_linear_798_1547)"/>
<path d="M20.7405 14.2569C20.6208 14.2569 20.501 14.1372 20.501 14.0174C20.501 13.8976 20.6208 13.7778 20.7405 13.7778C21.8983 13.7778 22.8565 12.8196 22.8565 11.6618C22.8565 11.542 22.9763 11.4223 23.0961 11.4223C23.2159 11.4223 23.3356 11.542 23.3356 11.6618C23.3756 13.0991 22.2177 14.2569 20.7405 14.2569Z" fill="#707070"/>
<path d="M33.147 2.01501V17.985" stroke="#707070" stroke-width="0.798498" stroke-linecap="round"/>
<path d="M46.0539 4.10689V15H44.9312V14.4842C44.1524 14.9292 43.3838 15.1517 42.6252 15.1517C42.2206 15.1517 41.8666 15.1011 41.5632 15C41.2597 14.8989 40.9765 14.7168 40.7136 14.4538C40.1674 13.9077 39.8943 12.9013 39.8943 11.4347C39.8943 9.95802 40.1371 8.89602 40.6225 8.2487C41.1181 7.59127 41.9323 7.26256 43.0651 7.26256C43.6518 7.26256 44.2738 7.3283 44.9312 7.45979V4.10689H46.0539ZM41.5935 13.6346C41.7553 13.8267 41.9273 13.9582 42.1093 14.029C42.2914 14.0998 42.524 14.1352 42.8072 14.1352C43.1006 14.1352 43.4242 14.0897 43.7782 13.9987C44.1423 13.8975 44.4255 13.8015 44.6278 13.7104L44.9312 13.5739V8.43076C44.2839 8.30939 43.6821 8.2487 43.1258 8.2487C42.3571 8.2487 41.8211 8.4965 41.5177 8.9921C41.2142 9.47759 41.0625 10.2362 41.0625 11.2678C41.0625 12.4411 41.2395 13.23 41.5935 13.6346ZM48.2583 15V7.41427H49.381V8.44593C50.2609 7.83907 51.1864 7.43956 52.1574 7.24738V8.40042C51.7326 8.48133 51.2875 8.60776 50.8223 8.7797C50.3671 8.95165 50.0182 9.10336 49.7754 9.23485L49.3962 9.43207V15H48.2583ZM53.5031 15V7.41427H54.641V15H53.5031ZM53.5031 5.6999V4.37998H54.641V5.6999H53.5031ZM56.1088 7.41427H57.3225L59.0976 14.0139H59.6589L61.4947 7.41427H62.6629L60.5237 15H58.248L56.1088 7.41427ZM69.151 14.0594L69.591 14.0139L69.6214 14.909C68.4683 15.0708 67.4822 15.1517 66.6629 15.1517C65.5706 15.1517 64.7968 14.8382 64.3417 14.2111C63.8866 13.5739 63.659 12.5877 63.659 11.2526C63.659 8.59259 64.7159 7.26256 66.8298 7.26256C67.8514 7.26256 68.615 7.55081 69.1207 8.12733C69.6264 8.69373 69.8793 9.58885 69.8793 10.8127L69.8186 11.6775H64.812C64.812 12.5169 64.9637 13.139 65.2672 13.5435C65.5706 13.9481 66.0965 14.1504 66.845 14.1504C67.6036 14.1504 68.3722 14.1201 69.151 14.0594ZM68.7414 10.7672C68.7414 9.83665 68.5897 9.17922 68.2863 8.79487C67.993 8.41053 67.5075 8.21836 66.8298 8.21836C66.1623 8.21836 65.6566 8.42064 65.3127 8.82522C64.9789 9.22979 64.807 9.8771 64.7968 10.7672H68.7414Z" fill="#707070"/>
<defs>
<radialGradient id="paint0_radial_798_1547" cx="0" cy="0" r="1" gradientUnits="userSpaceOnUse" gradientTransform="translate(17.6863 8.90296) scale(4.46432 4.4646)">
<stop offset="0.54" stop-color="#535353"/>
<stop offset="1" stop-color="#7A7A7A"/>
</radialGradient>
<linearGradient id="paint1_linear_798_1547" x1="18.4761" y1="7.66195" x2="25.5132" y2="20.4928" gradientUnits="userSpaceOnUse">
<stop stop-color="#7A7A7A"/>
<stop offset="1" stop-color="#535353"/>
</linearGradient>
</defs>
</svg>
