<svg width="245" height="45" viewBox="0 0 245 45" fill="none" xmlns="http://www.w3.org/2000/svg">
<path d="M49.1208 30.2541C50.4383 30.2541 51.646 29.5953 52.5244 28.6072C52.4146 27.9484 52.3048 27.2896 52.3048 26.6309C52.3048 24.984 52.744 23.4469 53.4027 22.0195V4.78195C53.4027 2.36649 51.4265 0.5 49.1208 0.5C46.7053 0.5 44.8388 2.47628 44.8388 4.78195V25.8623C44.729 28.2778 46.7053 30.2541 49.1208 30.2541C49.011 30.2541 49.011 30.2541 49.1208 30.2541Z" fill="url(#paint0_radial_798_1523)"/>
<path d="M62.5782 9.28348C52.8066 9.28348 45.0112 17.1886 45.0112 26.9602C45.0112 31.352 46.6581 35.5241 49.6226 38.8179L55.0024 33.4381C51.3793 29.2659 51.9282 23.0077 56.1004 19.3845C60.2725 15.7613 66.6406 16.2005 70.154 20.3726C73.6674 24.5448 73.2282 30.803 69.056 34.4262C65.4328 37.5004 60.2725 37.6102 56.5396 34.7556L51.1597 40.2453C58.5158 46.6133 69.605 45.7349 75.973 38.269C82.341 30.803 81.4627 19.8237 73.9967 13.4556C70.8127 10.8206 66.7504 9.28348 62.5782 9.28348Z" fill="url(#paint1_linear_798_1523)"/>
<path d="M69.1607 27.0603C69.1639 27.0673 69.1653 27.0718 69.1658 27.0738L68.9462 27.0738C68.9467 27.0718 68.9481 27.0673 68.9513 27.0603C68.9585 27.0449 68.9717 27.0249 68.9913 27.0053C69.0109 26.9857 69.0309 26.9725 69.0463 26.9654C69.0504 26.9634 69.0536 26.9622 69.056 26.9614C69.0584 26.9622 69.0617 26.9634 69.0658 26.9654C69.0811 26.9725 69.1011 26.9857 69.1207 27.0053C69.1403 27.0249 69.1535 27.0449 69.1607 27.0603Z" fill="#F4C20D" stroke="#F4C20D" stroke-width="1.09794"/>
<path d="M96.6968 1.5V43.5" stroke="#F4C20D" stroke-width="2.19587" stroke-linecap="round"/>
<path d="M132.191 7.54392V37.5H129.104V36.0815C126.962 37.3053 124.848 37.9172 122.762 37.9172C121.649 37.9172 120.676 37.7781 119.841 37.5C119.007 37.2219 118.228 36.7212 117.505 35.998C116.003 34.496 115.252 31.7285 115.252 27.6954C115.252 23.6345 115.92 20.714 117.255 18.9339C118.618 17.126 120.857 16.222 123.972 16.222C125.585 16.222 127.296 16.4028 129.104 16.7644V7.54392H132.191ZM119.925 33.7451C120.37 34.2735 120.843 34.6351 121.343 34.8298C121.844 35.0245 122.484 35.1219 123.263 35.1219C124.069 35.1219 124.959 34.9967 125.933 34.7464C126.934 34.4682 127.713 34.204 128.269 33.9537L129.104 33.5782V19.4346C127.324 19.1008 125.669 18.9339 124.139 18.9339C122.025 18.9339 120.551 19.6154 119.716 20.9783C118.882 22.3134 118.465 24.3994 118.465 27.2365C118.465 30.463 118.951 32.6325 119.925 33.7451ZM138.253 37.5V16.6392H141.34V19.4763C143.76 17.8074 146.305 16.7088 148.975 16.1803V19.3511C147.807 19.5736 146.583 19.9213 145.304 20.3942C144.052 20.867 143.093 21.2842 142.425 21.6458L141.382 22.1882V37.5H138.253ZM152.676 37.5V16.6392H155.805V37.5H152.676ZM152.676 11.9247V8.29491H155.805V11.9247H152.676ZM159.842 16.6392H163.18L168.061 34.7881H169.605L174.653 16.6392H177.866L171.983 37.5H165.725L159.842 16.6392ZM195.708 34.9133L196.918 34.7881L197.002 37.2497C193.831 37.6947 191.119 37.9172 188.866 37.9172C185.862 37.9172 183.734 37.055 182.482 35.3305C181.231 33.5782 180.605 30.8663 180.605 27.1948C180.605 19.8796 183.512 16.222 189.325 16.222C192.134 16.222 194.234 17.0147 195.625 18.6001C197.015 20.1577 197.711 22.6193 197.711 25.9848L197.544 28.363H183.776C183.776 30.6716 184.193 32.3822 185.027 33.4947C185.862 34.6073 187.308 35.1636 189.367 35.1636C191.453 35.1636 193.566 35.0801 195.708 34.9133ZM194.582 25.8597C194.582 23.3008 194.165 21.4928 193.33 20.4359C192.523 19.3789 191.188 18.8505 189.325 18.8505C187.489 18.8505 186.098 19.4068 185.153 20.5193C184.235 21.6319 183.762 23.412 183.734 25.8597H194.582Z" fill="#108DD8"/>
<defs>
<radialGradient id="paint0_radial_798_1523" cx="0" cy="0" r="1" gradientUnits="userSpaceOnUse" gradientTransform="translate(54.1795 19.4832) scale(12.2769 12.2777)">
<stop offset="0.54" stop-color="#2155CD"/>
<stop offset="1" stop-color="#0AA1DD"/>
</radialGradient>
<linearGradient id="paint1_linear_798_1523" x1="56.351" y1="16.0703" x2="83.5247" y2="63.1108" gradientUnits="userSpaceOnUse">
<stop stop-color="#0AA1DD"/>
<stop offset="1" stop-color="#2155CD"/>
</linearGradient>
</defs>
</svg>
